<?xml version="1.0" encoding="UTF-8" standalone="no"?>
<svg xmlns="http://www.w3.org/2000/svg" viewBox="0 0 2773.3333 2773.3333">
    <defs id="defs6">
        <clipPath id="clipPath18" clipPathUnits="userSpaceOnUse">
            <path d="M 0,2080 H 2080 V 0 H 0 Z" />
        </clipPath>
    </defs>
    <g transform="matrix(1.3333333,0,0,-1.3333333,0,2773.3333)" id="g10">
        <g id="g12">
            <g clip-path="url(#clipPath18)" id="g14">
                <g transform="translate(798.271,682.252)">
                    <path d="M 0,0 C -35.721,0 -53.582,20.34 -53.582,61.025 V 737.517 H -9.448 29.253 V 0 Z m 583.695,0 v 632.585 c 0,93.269 -43.165,139.912 -129.495,139.912 -44.655,0 -82.119,-15.14 -112.376,-45.397 -21.341,30.257 -56.562,45.397 -105.68,45.397 -36.722,0 -66.234,-9.676 -88.561,-29.026 v 21.582 H 32.003 -9.448 -53.582 v 274.618 L -171.914,986.086 V 765.053 h -38.698 v -27.536 h 38.698 V 128.004 c 0,-43.164 16.247,-79.887 48.747,-110.144 30.403,-28.325 68.316,-43.386 113.719,-45.205 v -0.191 H 0 37.957 186.281 V 0 h -38.698 v 715.935 c 17.36,17.363 35.721,26.049 55.071,26.049 29.768,0 44.652,-19.351 44.652,-58.049 V -27.536 H 403.591 V 0 h -37.953 v 632.585 c 0,28.767 -4.467,53.082 -13.396,72.933 22.816,24.303 45.64,36.466 68.468,36.466 29.268,0 43.908,-19.351 43.908,-58.049 V -27.536 h 157.03 V 0 Z" />
                </g>
                <g transform="translate(730.415,528.7764)">
                    <path d="m 0,0 c -4.478,-8.186 -10.613,-14.554 -18.401,-19.098 -7.795,-4.555 -16.553,-6.834 -26.274,-6.834 -9.721,0 -18.479,2.279 -26.27,6.834 -7.795,4.544 -13.93,10.912 -18.402,19.098 -4.478,8.174 -6.713,17.51 -6.713,28.002 0,10.492 2.235,19.793 6.713,27.893 4.472,8.104 10.607,14.425 18.402,18.982 7.791,4.55 16.549,6.827 26.27,6.827 9.721,0 18.479,-2.277 26.274,-6.827 C -10.613,70.32 -4.478,63.999 0,55.895 4.472,47.795 6.713,38.494 6.713,28.002 6.713,17.51 4.472,8.174 0,0 m -14.582,81.129 c -8.954,5.166 -18.905,7.754 -29.86,7.754 -11.574,0 -21.954,-2.934 -31.134,-8.801 -9.18,-5.867 -16.008,-13.966 -20.484,-24.303 v 83.793 h -7.639 V -32.179 h 7.409 V 0.689 c 4.473,-10.491 11.301,-18.711 20.484,-24.653 9.178,-5.936 19.635,-8.904 31.364,-8.904 10.955,0 20.906,2.576 29.86,7.754 8.948,5.165 16.005,12.379 21.177,21.639 5.168,9.261 7.757,19.753 7.757,31.477 0,11.723 -2.589,22.227 -7.757,31.481 -5.172,9.256 -12.229,16.469 -21.177,21.646" />
                </g>
                <g transform="translate(776.7061,548.6787)">
                    <path d="m 0,0 c -0.311,3.704 -0.463,6.633 -0.463,8.795 0,10.187 2.16,19.328 6.483,27.433 4.317,8.099 10.259,14.426 17.823,18.976 7.558,4.55 16.201,6.828 25.923,6.828 8.639,0 16.356,-1.967 23.147,-5.901 C 79.7,52.196 85.182,46.95 89.347,40.393 93.514,33.829 96.134,26.69 97.216,18.982 Z M 96.871,41.899 C 92.01,50.229 85.487,56.82 77.31,61.688 69.13,66.548 59.95,68.98 49.766,68.98 38.655,68.98 28.738,66.393 20.023,61.227 11.303,56.05 4.475,48.837 -0.463,39.581 -5.401,30.326 -7.869,19.822 -7.869,8.1 c 0,-11.724 2.623,-22.216 7.869,-31.477 5.246,-9.261 12.5,-16.475 21.758,-21.64 9.258,-5.177 19.676,-7.754 31.249,-7.754 9.103,0 17.553,1.651 25.344,4.97 7.792,3.319 14.312,8.22 19.561,14.702 l -4.631,5.091 c -4.628,-5.867 -10.414,-10.302 -17.36,-13.31 -6.943,-3.009 -14.504,-4.516 -22.684,-4.516 -13.118,0 -24.303,3.59 -33.562,10.769 -9.258,7.172 -15.355,16.779 -18.286,28.818 l 103.699,20.599 c -0.619,10.026 -3.357,19.207 -8.217,27.547" />
                </g>
                <g transform="translate(1009.5625,528.7764)">
                    <path d="m 0,0 c -4.478,-8.186 -10.613,-14.554 -18.404,-19.098 -7.792,-4.555 -16.55,-6.834 -26.271,-6.834 -9.721,0 -18.482,2.279 -26.27,6.834 -7.795,4.544 -13.93,10.912 -18.402,19.098 -4.478,8.174 -6.713,17.51 -6.713,28.002 0,10.492 2.235,19.793 6.713,27.893 4.472,8.104 10.607,14.425 18.402,18.982 7.788,4.55 16.549,6.827 26.27,6.827 9.721,0 18.479,-2.277 26.271,-6.827 C -10.613,70.32 -4.478,63.999 0,55.895 4.472,47.795 6.71,38.494 6.71,28.002 6.71,17.51 4.472,8.174 0,0 m 6.71,55.779 c -4.475,10.337 -11.303,18.436 -20.484,24.303 -9.183,5.867 -19.558,8.801 -31.131,8.801 -10.961,0 -20.912,-2.588 -29.86,-7.754 -8.95,-5.177 -16.011,-12.39 -21.179,-21.646 -5.172,-9.254 -7.755,-19.758 -7.755,-31.481 0,-11.724 2.583,-22.216 7.755,-31.477 5.168,-9.26 12.229,-16.474 21.179,-21.639 8.948,-5.178 18.899,-7.754 29.86,-7.754 11.723,0 22.181,2.968 31.364,8.904 9.178,5.942 16.006,14.162 20.484,24.653 v -32.868 h 7.406 V 87.951 H 6.71 Z" />
                </g>
                <g transform="translate(1170.4268,551.9229)">
                    <path d="m 0,0 c 0,-14.973 -4.168,-26.897 -12.5,-35.768 -8.332,-8.869 -19.672,-13.31 -34.024,-13.31 -13.581,0 -24.036,3.739 -31.365,11.228 -7.331,7.484 -10.995,18.328 -10.995,32.524 v 70.131 h -7.638 V -5.786 c 0,-16.21 4.397,-28.629 13.195,-37.276 8.795,-8.639 20.984,-12.953 36.57,-12.953 11.263,0 20.985,2.618 29.166,7.869 8.178,5.24 14.119,12.575 17.824,21.985 V -55.325 H 7.639 V 64.805 H 0 Z" />
                </g>
                <g transform="translate(1269.958,504.4668)">
                    <path d="m 0,0 c -3.399,-1.236 -6.949,-1.852 -10.653,-1.852 -7.714,0 -13.576,2.163 -17.591,6.483 -4.015,4.32 -6.017,10.566 -6.017,18.746 v 82.177 H 5.32 v 6.707 h -39.581 v 26.391 h -7.638 V 22.221 c 0,-9.566 2.663,-17.09 7.984,-22.566 5.326,-5.482 12.85,-8.214 22.571,-8.214 4.631,0 9.101,0.725 13.426,2.198 4.314,1.461 7.869,3.508 10.647,6.132 L 8.795,5.327 C 6.321,3.015 3.388,1.231 0,0" />
                </g>
                <g transform="translate(1412.0723,557.0078)">
                    <path d="m 0,0 c 0,-14.967 -4.164,-26.926 -12.499,-35.871 -8.335,-8.95 -19.673,-13.426 -34.024,-13.426 -13.581,0 -24.04,3.739 -31.368,11.223 -7.328,7.484 -10.993,18.321 -10.993,32.523 V 59.72 h -7.638 V -6.017 c 0,-16.198 4.4,-28.623 13.196,-37.262 8.795,-8.646 20.983,-12.966 36.572,-12.966 11.263,0 20.903,2.583 28.934,7.754 8.018,5.171 13.961,12.385 17.82,21.639 v -22.911 c 0,-16.974 -3.589,-29.433 -10.762,-37.383 -7.179,-7.944 -18.327,-11.918 -33.449,-11.918 -9.106,0 -17.516,1.586 -25.229,4.745 -7.72,3.164 -14.198,7.679 -19.444,13.541 l -4.63,-5.787 c 5.097,-6.023 12.075,-10.763 20.95,-14.237 8.87,-3.474 18.401,-5.206 28.588,-5.206 17.435,0 30.395,4.631 38.885,13.886 8.486,9.262 12.731,23.693 12.731,43.286 V 59.72 H 0 Z" />
                </g>
                <g transform="translate(808.7432,1490.9937)">
                    <path d="m 0,0 c 2.937,0 5.775,0.463 8.519,1.395 2.738,0.929 4.993,2.226 6.753,3.891 L 12.776,8.81 C 11.208,7.342 9.347,6.215 7.196,5.433 5.042,4.647 2.79,4.259 0.44,4.259 c -4.895,0 -8.614,1.369 -11.159,4.11 -2.549,2.741 -3.82,6.705 -3.82,11.896 v 52.132 h 25.112 v 4.26 h -25.112 v 16.742 h -4.846 V 19.532 c 0,-6.072 1.688,-10.846 5.068,-14.321 C -10.941,1.737 -6.167,0 0,0" />
                </g>
                <g transform="translate(843.2539,1547.3105)">
                    <path d="m 0,0 c 2.838,5.14 6.73,9.155 11.674,12.042 4.941,2.888 10.501,4.332 16.667,4.332 6.169,0 11.723,-1.444 16.667,-4.332 C 49.952,9.155 53.844,5.14 56.685,0 c 2.839,-5.14 4.257,-11.039 4.257,-17.697 0,-6.658 -1.418,-12.58 -4.257,-17.768 -2.841,-5.189 -6.733,-9.23 -11.677,-12.115 -4.944,-2.89 -10.498,-4.331 -16.667,-4.331 -6.166,0 -11.726,1.441 -16.667,4.331 -4.944,2.885 -8.836,6.926 -11.674,12.115 -2.842,5.188 -4.26,11.11 -4.26,17.768 0,6.658 1.418,12.557 4.26,17.697 m 9.252,-51.399 c 5.675,-3.282 11.991,-4.918 18.942,-4.918 7.441,0 14.073,1.884 19.9,5.654 5.824,3.768 10.156,8.979 12.994,15.638 v -20.852 h 4.7 V 20.34 H 60.942 V -0.072 c -2.839,6.558 -7.173,11.697 -12.994,15.419 -5.827,3.719 -12.411,5.58 -19.754,5.58 -6.951,0 -13.267,-1.639 -18.942,-4.918 C 3.572,12.727 -0.906,8.151 -4.185,2.278 c -3.282,-5.876 -4.921,-12.534 -4.921,-19.975 0,-7.44 1.639,-14.095 4.921,-19.971 3.279,-5.874 7.757,-10.452 13.437,-13.731" />
                </g>
                <g transform="translate(946.4922,1532.5532)">
                    <path d="m 0,0 c 0,9.494 2.738,17.056 8.223,22.687 5.482,5.628 12.971,8.444 22.468,8.444 8.418,0 14.904,-2.376 19.457,-7.121 4.553,-4.751 6.831,-11.628 6.831,-20.633 V -41.12 h 4.846 V 3.67 c 0,10.279 -2.744,18.186 -8.226,23.717 -5.485,5.53 -12.974,8.297 -22.468,8.297 -7.538,0 -14.024,-1.714 -19.457,-5.14 C 6.241,27.116 2.298,22.417 -0.15,16.446 V 35.098 H -4.846 V -41.12 H 0 Z" />
                </g>
                <g transform="translate(1040.6216,1547.3105)">
                    <path d="m 0,0 c 2.838,5.14 6.73,9.155 11.674,12.042 4.942,2.888 10.501,4.332 16.667,4.332 6.169,0 11.723,-1.444 16.667,-4.332 C 49.953,9.155 53.844,5.14 56.686,0 c 2.838,-5.14 4.256,-11.039 4.256,-17.697 0,-6.658 -1.418,-12.58 -4.256,-17.768 -2.842,-5.189 -6.733,-9.23 -11.678,-12.115 -4.944,-2.89 -10.498,-4.331 -16.667,-4.331 -6.166,0 -11.725,1.441 -16.667,4.331 -4.944,2.885 -8.836,6.926 -11.674,12.115 -2.841,5.188 -4.259,11.11 -4.259,17.768 0,6.658 1.418,12.557 4.259,17.697 m 9.252,-51.399 c 5.675,-3.282 11.991,-4.918 18.943,-4.918 7.44,0 14.072,1.884 19.899,5.654 5.824,3.768 10.156,8.979 12.995,15.638 v -20.852 h 4.7 V 53.087 H 60.942 V -0.072 c -2.839,6.558 -7.173,11.697 -12.994,15.419 -5.827,3.719 -12.41,5.58 -19.753,5.58 -6.952,0 -13.268,-1.639 -18.943,-4.918 C 3.572,12.727 -0.906,8.151 -4.185,2.278 c -3.281,-5.876 -4.92,-12.534 -4.92,-19.975 0,-7.44 1.639,-14.095 4.92,-19.971 3.279,-5.874 7.757,-10.452 13.437,-13.731" />
                </g>
                <g transform="translate(1139.1572,1547.4575)">
                    <path d="m 0,0 c 2.738,5.14 6.509,9.155 11.307,12.042 4.797,2.888 10.279,4.332 16.448,4.332 5.481,0 10.377,-1.249 14.685,-3.745 4.306,-2.497 7.783,-5.824 10.426,-9.986 2.644,-4.162 4.309,-8.689 4.993,-13.584 L -3.819,-22.983 c -0.199,2.35 -0.293,4.211 -0.293,5.583 0,6.459 1.369,12.26 4.112,17.4 m 9.986,-51.546 c 5.873,-3.282 12.483,-4.918 19.826,-4.918 5.775,0 11.132,1.05 16.08,3.158 4.941,2.102 9.08,5.211 12.407,9.324 l -2.937,3.23 c -2.936,-3.722 -6.608,-6.535 -11.012,-8.444 -4.406,-1.91 -9.204,-2.862 -14.392,-2.862 -8.323,0 -15.419,2.275 -21.295,6.828 -5.873,4.553 -9.741,10.647 -11.602,18.284 l 65.792,13.069 C 62.461,-7.516 60.724,-1.688 57.638,3.598 54.555,8.884 50.419,13.069 45.23,16.155 40.039,19.238 34.215,20.78 27.755,20.78 20.705,20.78 14.412,19.141 8.885,15.862 3.351,12.58 -0.98,8.004 -4.112,2.131 c -3.135,-5.876 -4.701,-12.534 -4.701,-19.975 0,-7.44 1.664,-14.095 4.994,-19.971 3.328,-5.873 7.929,-10.452 13.805,-13.731" />
                </g>
                <g transform="translate(1230.7939,1532.5532)">
                    <path d="m 0,0 c 0,9.494 2.666,17.056 8.001,22.687 5.338,5.628 12.609,8.444 21.812,8.444 8.019,0 14.243,-2.376 18.649,-7.121 4.406,-4.751 6.603,-11.628 6.603,-20.633 V -41.12 h 4.844 V 0 c 0,9.396 2.693,16.935 8.088,22.615 5.372,5.677 12.62,8.516 21.732,8.516 8.122,0 14.392,-2.376 18.798,-7.121 4.407,-4.751 6.604,-11.628 6.604,-20.633 V -41.12 h 4.844 V 3.67 c 0,10.377 -2.67,18.307 -7.996,23.791 -5.338,5.482 -12.656,8.223 -21.962,8.223 -7.732,0 -14.347,-1.861 -19.823,-5.58 -5.487,-3.721 -9.353,-8.763 -11.596,-15.125 -1.668,6.753 -4.994,11.893 -9.986,15.419 -4.993,3.523 -11.171,5.286 -18.51,5.286 -7.34,0 -13.633,-1.688 -18.869,-5.065 C 5.993,27.24 2.2,22.615 -0.149,16.739 V 35.098 H -4.847 V -41.12 H 0 Z" />
                </g>
            </g>
        </g>
    </g>
</svg>