<svg xmlns="http://www.w3.org/2000/svg" viewBox="600 450 1500 1500">
    <path d="M1064.361 1863.664c-47.628 0-71.442-27.12-71.442-81.367V880.308h110.446v983.356zm778.26 0v-843.447c0-124.358-57.553-186.549-172.66-186.549-59.54 0-109.492 20.187-149.834 60.53-28.455-40.343-75.416-60.53-140.907-60.53-48.963 0-88.312 12.901-118.081 38.701v-28.776h-268.22V477.436l-157.776 71.447v294.71h-51.598v36.715h51.598v812.684c0 57.552 21.662 106.516 64.996 146.859 40.537 37.766 91.088 57.848 151.625 60.273v.255h260.972v-36.715h-51.597v-954.58c23.146-23.15 47.628-34.732 73.428-34.732 39.69 0 59.536 25.801 59.536 77.399v948.628h208.38v-36.715h-50.604v-843.447c0-38.356-5.956-70.776-17.862-97.244 30.422-32.404 60.854-48.621 91.291-48.621 39.024 0 58.544 25.801 58.544 77.399v948.628h209.373v-36.715z" />
</svg>